<svg version="1.1" xmlns="http://www.w3.org/2000/svg" style="display: block;" viewBox="0 0 2048 2048" width="2048" height="2048" preserveAspectRatio="none">
<path transform="translate(0,0)" fill="rgb(253,254,254)" d="M 0 0 L 2048 0 L 2048 613.98 L 2048 819.483 L 2048 972.788 L 2048 1024 L 2048 1126.63 L 2048 1433.97 L 2048 1587.42 C 2007.85 1587.78 1647.72 1589.94 1638.61 1586.21 C 1635.5 1588.14 1547.46 1587.07 1535.98 1587.23 L 1535.96 1676.39 C 1535.96 1687.4 1535.3 1709.93 1536.16 1720.35 L 1535.99 1740.53 C 1521.47 1740.62 1499.5 1739.83 1485.79 1740.92 L 1484.74 1742 L 1485.12 1745.55 C 1484.04 1766.61 1484.97 1789.07 1484.62 1810.28 C 1479 1819.78 1491.38 1840.85 1467.59 1839.92 C 1460.75 1839.65 1453 1840.36 1446.65 1843.23 L 1441.9 1843.63 C 1440.32 1843.39 1435.59 1843.24 1433.76 1843.13 L 1382.62 1843.09 C 1382.97 1859.97 1383 1876.86 1382.72 1893.75 C 1374.14 1895.03 1347.16 1894.42 1337.42 1894.38 C 1345.53 1896.41 1371.92 1895.33 1381.33 1895.31 C 1380.18 1909.12 1379.3 1928.92 1379.96 1942.58 C 1369.13 1940.94 1358.09 1941.34 1347.41 1943.75 C 1344.85 1944.35 1342.74 1944.55 1340.15 1944.8 L 1339.27 1945.44 C 1335.67 1945.62 1334.14 1945.14 1331.4 1946.87 C 1330.15 1957.58 1331.08 1984.73 1331.06 1996.83 C 1297.07 1996.8 1262.59 1997.08 1228.64 1996.69 L 1228.68 2048 L 819.344 2048 L 0 2048 L 0 1843.84 L 0 1740.83 L 0 1587.08 L 0 1433.63 L 0 1126.3 L 0 819.786 L 0 613.829 L 0 460.938 L 0 458.735 L 0 358.454 L 0 0 z"/>
<path transform="translate(0,0)" fill="rgb(1,1,1)" d="M 0 613.829 C 28.7585 615.197 60.3928 613.527 89.3353 613.844 C 124.743 614.231 160.15 614.201 195.56 614.244 L 264.293 614.128 C 272.739 614.196 298.303 615.015 305.915 613.979 C 307.384 614.981 306.897 614.349 307.528 615.75 L 308.223 614.904 C 313.517 613.874 352.473 614.052 358.234 614.852 C 358.233 631.077 357.787 650.114 358.698 666.095 L 358.594 667.022 C 358.591 683.372 358.766 700.057 358.538 716.375 L 409.644 716.382 L 409.877 767.956 L 460.882 767.963 C 460.879 783.601 461.137 800.009 460.823 815.582 C 461.86 817.534 461.742 818.377 463.372 818.516 C 477.925 819.759 497.551 818.947 511.999 819.06 C 512.039 835.845 512.391 853.609 512.092 870.309 L 512.021 1126.38 L 460.877 1126.4 C 460.847 1143.34 460.626 1160.66 460.845 1177.57 C 443.989 1177.59 426.358 1177.32 409.572 1177.63 C 409.392 1194.27 409.315 1210.91 409.342 1227.55 C 405.144 1229.83 366.589 1228.61 358.805 1228.77 C 357.5 1236.62 358.235 1270.61 358.27 1280.01 L 255.974 1279.96 L 256.018 1382.44 L 307.373 1382.24 L 307.339 1433.4 C 324.298 1433.67 341.26 1433.68 358.219 1433.42 C 358.953 1449.88 358.619 1467.96 358.619 1484.55 C 375.547 1484.5 392.972 1484.73 409.826 1484.41 L 409.718 1536.02 L 511.966 1535.98 L 511.97 1433.13 L 460.988 1433.82 L 460.942 1382.25 L 512.066 1382.38 L 512.029 1331.05 L 614.386 1331.05 C 614.484 1314.31 614.868 1296.69 614.572 1280.03 L 716.704 1280.02 L 1156.46 1279.99 L 1276.55 1280.05 C 1286.69 1280.05 1323.93 1280.69 1331.48 1279.34 L 1331.8 1279.88 C 1330.93 1295.28 1331.6 1315.31 1331.66 1331.07 C 1364.83 1331.1 1399.31 1330.64 1432.38 1331.26 C 1431.64 1334.43 1431.25 1381.37 1431.63 1383.89 C 1438.26 1390.49 1471.73 1386.28 1481.41 1384.24 C 1482.99 1401.67 1482.54 1419.39 1482.52 1436.9 L 1482.46 1509.47 C 1482.46 1518.84 1482.32 1553.6 1484.73 1560.63 C 1485.62 1620.18 1484.45 1680.61 1484.84 1740.27 C 1469.62 1740.6 1448.06 1739.88 1434.03 1740.8 C 1432.86 1770.54 1433.1 1813.16 1433.76 1843.13 L 1382.62 1843.09 C 1382.97 1859.97 1383 1876.86 1382.72 1893.75 C 1374.14 1895.03 1347.16 1894.42 1337.42 1894.38 C 1345.53 1896.41 1371.92 1895.33 1381.33 1895.31 C 1380.18 1909.12 1379.3 1928.92 1379.96 1942.58 C 1369.13 1940.94 1358.09 1941.34 1347.41 1943.75 C 1344.85 1944.35 1342.74 1944.55 1340.15 1944.8 L 1339.27 1945.44 C 1335.67 1945.62 1334.14 1945.14 1331.4 1946.87 C 1330.15 1957.58 1331.08 1984.73 1331.06 1996.83 C 1297.07 1996.8 1262.59 1997.08 1228.64 1996.69 L 1228.68 2048 L 819.344 2048 L 0 2048 L 0 1843.84 L 0 1740.83 L 0 1587.08 L 0 1433.63 L 0 1126.3 L 0 819.786 L 0 613.829 z"/>
<path transform="translate(0,0)" fill="rgb(252,192,138)" d="M 1331.48 1279.34 L 1331.8 1279.88 C 1330.93 1295.28 1331.6 1315.31 1331.66 1331.07 C 1364.83 1331.1 1399.31 1330.64 1432.38 1331.26 C 1431.64 1334.43 1431.25 1381.37 1431.63 1383.89 C 1438.26 1390.49 1471.73 1386.28 1481.41 1384.24 C 1482.99 1401.67 1482.54 1419.39 1482.52 1436.9 L 1482.46 1509.47 C 1482.46 1518.84 1482.32 1553.6 1484.73 1560.63 C 1485.62 1620.18 1484.45 1680.61 1484.84 1740.27 C 1469.62 1740.6 1448.06 1739.88 1434.03 1740.8 C 1432.86 1770.54 1433.1 1813.16 1433.76 1843.13 L 1382.62 1843.09 C 1382.97 1859.97 1383 1876.86 1382.72 1893.75 C 1374.14 1895.03 1347.16 1894.42 1337.42 1894.38 L 1331.7 1894.3 C 1331.4 1911.31 1331.27 1928.31 1331.3 1945.32 C 1308.79 1945.46 1286.27 1945.46 1263.75 1945.34 C 1257.58 1945.32 1234.87 1945 1229.45 1945.99 C 1219.18 1944.86 1197.46 1945.41 1186.57 1945.38 L 1102.52 1945.32 L 818.244 1945.65 L 716.768 1945.45 C 716.529 1928.54 716.706 1911.22 716.688 1894.28 L 665.835 1894.31 C 665.928 1877.27 665.838 1860.22 665.566 1843.18 C 648.759 1843.43 631.296 1843.14 614.439 1843.09 L 614.292 1792 C 614.294 1775.27 614.622 1757.14 613.924 1740.54 C 597.066 1740.83 580.203 1740.8 563.346 1740.45 L 563.213 1727.86 L 565.677 1728.94 C 569.524 1723.5 566.696 1425.58 567.293 1389.19 C 573.428 1382.46 600.125 1388.71 614.001 1384.87 L 614.734 1383.08 C 613.79 1367.45 614.388 1347.21 614.475 1331.24 C 648.209 1330.73 682.877 1331.09 716.687 1331.03 C 716.557 1314.03 716.562 1297.02 716.704 1280.02 L 1156.46 1279.99 L 1276.55 1280.05 C 1286.69 1280.05 1323.93 1280.69 1331.48 1279.34 z"/>
<path transform="translate(0,0)" fill="rgb(250,152,107)" d="M 1331.48 1279.34 L 1331.8 1279.88 C 1330.93 1295.28 1331.6 1315.31 1331.66 1331.07 C 1364.83 1331.1 1399.31 1330.64 1432.38 1331.26 C 1431.64 1334.43 1431.25 1381.37 1431.63 1383.89 C 1438.26 1390.49 1471.73 1386.28 1481.41 1384.24 C 1482.99 1401.67 1482.54 1419.39 1482.52 1436.9 L 1482.46 1509.47 C 1482.46 1518.84 1482.32 1553.6 1484.73 1560.63 C 1485.62 1620.18 1484.45 1680.61 1484.84 1740.27 C 1469.62 1740.6 1448.06 1739.88 1434.03 1740.8 C 1433.28 1734.69 1433.79 1719.68 1433.8 1713.01 L 1433.83 1658.87 L 1433.94 1518.62 C 1433.94 1491.24 1434.53 1461.04 1433.37 1433.86 C 1416.37 1433.5 1399.36 1433.45 1382.36 1433.69 C 1381.63 1418.57 1382.48 1398.85 1382.14 1382.72 C 1350.2 1381.84 1311.04 1384.62 1280.12 1381.66 C 1280.71 1366.27 1280.09 1347.02 1280.02 1331.33 C 1231.53 1332.48 1179.38 1331.62 1130.62 1331.48 L 949.861 1331.29 C 889.982 1330.89 827.317 1332.68 767.935 1331.25 C 768.018 1348.12 767.906 1364.98 767.597 1381.84 C 736.659 1383.88 697.654 1382.67 665.866 1382.75 C 665.434 1399.06 665.898 1417.21 665.969 1433.66 C 649.321 1434.07 631.295 1433.5 614.307 1433.76 C 616.034 1503.12 614.241 1579.61 614.321 1649.51 L 614.534 1708.48 C 614.579 1716.15 615.333 1734.17 613.924 1740.54 C 597.066 1740.83 580.203 1740.8 563.346 1740.45 L 563.213 1727.86 L 565.677 1728.94 C 569.524 1723.5 566.696 1425.58 567.293 1389.19 C 573.428 1382.46 600.125 1388.71 614.001 1384.87 L 614.734 1383.08 C 613.79 1367.45 614.388 1347.21 614.475 1331.24 C 648.209 1330.73 682.877 1331.09 716.687 1331.03 C 716.557 1314.03 716.562 1297.02 716.704 1280.02 L 1156.46 1279.99 L 1276.55 1280.05 C 1286.69 1280.05 1323.93 1280.69 1331.48 1279.34 z"/>
<path transform="translate(0,0)" fill="rgb(250,152,107)" d="M 1228.7 1894.26 C 1259.82 1894.37 1302.31 1892.82 1331.7 1894.3 C 1331.4 1911.31 1331.27 1928.31 1331.3 1945.32 C 1308.79 1945.46 1286.27 1945.46 1263.75 1945.34 C 1257.58 1945.32 1234.87 1945 1229.45 1945.99 C 1230.05 1943.92 1228.75 1899.18 1228.7 1894.26 z"/>
<path transform="translate(0,0)" fill="rgb(250,152,107)" d="M 1382.91 1740.75 C 1397.74 1740.58 1419.8 1739.7 1434.03 1740.8 C 1432.86 1770.54 1433.1 1813.16 1433.76 1843.13 L 1382.62 1843.09 C 1381.64 1811.53 1382.88 1772.84 1382.91 1740.75 z"/>
<path transform="translate(0,0)" fill="rgb(250,152,107)" d="M 716.688 1894.28 C 743.613 1892.85 772.118 1895.2 799.188 1894.41 C 805.363 1894.23 812.98 1894.17 819.117 1894.59 C 819.1 1907.99 819.64 1933.27 818.244 1945.65 L 716.768 1945.45 C 716.529 1928.54 716.706 1911.22 716.688 1894.28 z"/>
<path transform="translate(0,0)" fill="rgb(250,152,107)" d="M 614.292 1792 C 629.196 1790.99 649.559 1792.37 665.45 1791.97 C 666.012 1801.41 666.603 1834.43 665.566 1843.18 C 648.759 1843.43 631.296 1843.14 614.439 1843.09 L 614.292 1792 z"/>
<path transform="translate(0,0)" fill="rgb(250,152,107)" d="M 1331.87 1843.32 C 1348.78 1843.22 1365.72 1842.83 1382.62 1843.09 C 1382.97 1859.97 1383 1876.86 1382.72 1893.75 C 1374.14 1895.03 1347.16 1894.42 1337.42 1894.38 L 1331.7 1894.3 C 1330.79 1880.55 1331.72 1857.74 1331.87 1843.32 z"/>
<path transform="translate(0,0)" fill="rgb(250,152,107)" d="M 665.566 1843.18 C 682.008 1842.68 700.042 1843.1 716.603 1843.17 C 716.707 1853.62 717.686 1885.72 716.688 1894.28 L 665.835 1894.31 C 665.928 1877.27 665.838 1860.22 665.566 1843.18 z"/>
<path transform="translate(0,0)" fill="rgb(177,9,6)" d="M 1177.6 1689.54 L 1228.68 1689.55 L 1228.71 1791.99 L 1177.64 1792.03 L 1177.6 1843.04 C 1160.94 1843.05 1142.76 1843.44 1126.23 1842.98 C 1127.46 1857.57 1125.17 1877.69 1126.75 1891.83 L 1126.31 1893.56 C 1124.31 1894.46 981.933 1895.57 976.978 1894.12 C 962.371 1895.33 937.165 1894.55 921.567 1894.62 C 921.826 1877.79 920.816 1859.71 921.844 1843.04 L 870.451 1843.11 L 870.68 1792 L 819.335 1791.97 C 819.34 1758.15 819.821 1723.13 819.202 1689.42 C 836.353 1689.71 853.507 1689.74 870.659 1689.52 C 870.463 1706 871.029 1724.71 870.448 1740.75 L 1177.66 1740.66 C 1177.78 1723.62 1177.76 1706.58 1177.6 1689.54 z"/>
<path transform="translate(0,0)" fill="rgb(224,15,10)" d="M 972.258 1791.97 C 1006.01 1792.25 1042.13 1791.3 1075.37 1791.93 C 1075.5 1800.25 1075.8 1809.01 1075.66 1817.29 C 1092.54 1817.08 1109.41 1817.06 1126.29 1817.22 C 1126.33 1824.55 1126.74 1835.67 1125.82 1842.62 L 1126.23 1842.98 C 1127.46 1857.57 1125.17 1877.69 1126.75 1891.83 L 1126.31 1893.56 C 1124.31 1894.46 981.933 1895.57 976.978 1894.12 C 962.371 1895.33 937.165 1894.55 921.567 1894.62 C 921.826 1877.79 920.816 1859.71 921.844 1843.04 C 921.486 1834.31 921.114 1826.41 921.461 1817.64 C 935.189 1816.78 958.181 1816.98 972.13 1817.47 C 972.339 1808.74 972.455 1800.7 972.258 1791.97 z"/>
<path transform="translate(0,0)" fill="rgb(216,15,9)" d="M 976.978 1894.12 L 978.302 1892.91 C 985.247 1892.14 998.268 1892.51 1005.68 1892.52 L 1055 1892.54 C 1077.17 1892.53 1105.9 1890.8 1126.75 1891.83 L 1126.31 1893.56 C 1124.31 1894.46 981.933 1895.57 976.978 1894.12 z"/>
<path transform="translate(0,0)" fill="rgb(1,1,1)" d="M 768.059 1382.66 L 870.476 1382.39 C 870.216 1393.5 870.283 1405.03 870.205 1416.17 L 870.159 1433.45 C 859.336 1433.15 828.837 1432.38 819.13 1433.78 C 836.147 1434.7 853.599 1433.53 870.368 1434.34 C 870.545 1444.9 870.185 1474.58 871.656 1483.16 C 861.517 1485.31 833.407 1483.13 820.534 1484.26 C 831.398 1485.46 858.213 1484.74 870.255 1484.74 C 870.806 1518.53 870.388 1553.45 870.422 1587.33 C 836.6 1586.8 801.958 1587.17 768.075 1587.16 L 768.059 1382.66 z"/>
<path transform="translate(0,0)" fill="rgb(253,254,254)" d="M 819.13 1433.78 C 836.147 1434.7 853.599 1433.53 870.368 1434.34 C 870.545 1444.9 870.185 1474.58 871.656 1483.16 C 861.517 1485.31 833.407 1483.13 820.534 1484.26 L 819.826 1483.83 C 818.622 1480.09 819.12 1440.58 819.13 1433.78 z"/>
<path transform="translate(0,0)" fill="rgb(1,1,1)" d="M 1177.93 1423.68 C 1177.7 1413.23 1177.02 1393.4 1178.09 1383.68 C 1180.33 1381.73 1180.95 1382.41 1184.75 1382.22 C 1216.54 1382.72 1248.34 1382.06 1280.03 1382.49 L 1279.94 1587.19 L 1177.89 1587.28 L 1177.87 1484.8 C 1189.7 1484.8 1211.35 1485.39 1222.38 1484.2 C 1209.7 1483.31 1190.69 1483.88 1177.55 1483.89 L 1177.94 1434.18 C 1194.64 1433.73 1212.12 1434.72 1228.77 1433.75 C 1219.41 1432.42 1188.87 1433.12 1177.9 1433.16 L 1177.93 1423.68 z"/>
<path transform="translate(0,0)" fill="rgb(253,254,254)" d="M 1177.94 1434.18 C 1194.64 1433.73 1212.12 1434.72 1228.77 1433.75 C 1228.81 1441.25 1229.39 1479.09 1228.33 1483.49 C 1225.65 1484.85 1225.47 1484.5 1222.38 1484.2 C 1209.7 1483.31 1190.69 1483.88 1177.55 1483.89 L 1177.94 1434.18 z"/>
<path transform="translate(0,0)" fill="rgb(5,12,18)" d="M 1177.93 1423.68 C 1177.7 1413.23 1177.02 1393.4 1178.09 1383.68 C 1180.33 1381.73 1180.95 1382.41 1184.75 1382.22 L 1183.97 1383.77 C 1183.09 1385.48 1182.65 1386.19 1181.5 1387.78 C 1181.07 1395.14 1181.83 1402.56 1181.92 1409.95 C 1182 1416.24 1180.02 1418.12 1177.93 1423.68 z"/>
<path transform="translate(0,0)" fill="rgb(124,202,247)" d="M 562.388 1740.84 C 563.888 1748.74 563.428 1767.84 563.426 1776.51 L 563.373 1843.17 L 614.584 1843.11 C 614.596 1859.88 614.909 1877.74 614.45 1894.42 C 631.193 1894.47 648.903 1894.83 665.565 1894.51 L 665.592 1945.54 L 716.428 1945.53 C 716.701 1953.33 715.825 1993.98 718.25 1996.95 L 719.376 1997.45 C 729.592 1999.82 809.618 2000.31 819.296 1997.92 L 819.344 2048 L 0 2048 L 0 1843.84 C 31.8925 1842.79 68.3626 1843.89 100.69 1843.85 L 325.72 1843.85 C 369.436 1843.93 416.459 1844.78 459.994 1843.62 C 461.214 1831.94 460.339 1805.29 460.214 1792.41 C 493.764 1791.67 527.667 1792.67 561.462 1791.84 C 561.85 1782.23 561.518 1770.66 561.495 1760.91 C 561.912 1753.93 561.16 1747.78 562.388 1740.84 z"/>
<path transform="translate(0,0)" fill="rgb(113,199,250)" d="M 51.2901 1535.83 L 204.931 1535.92 C 204.937 1552.9 204.789 1570.14 205.03 1587.1 C 216.49 1587.07 246.025 1586.28 256.133 1587.43 C 305.253 1586.89 357.933 1587.39 407.255 1587.61 L 407.527 1586.28 C 408.434 1581.97 408.46 1581.45 408.307 1576.9 L 408.261 1575.78 L 409.045 1585.33 C 409.54 1585.79 410.035 1586.26 410.53 1586.72 C 429.192 1586.67 452.249 1588.56 470.617 1586.99 C 484.139 1587.27 497.666 1587.28 511.189 1587.01 L 511.107 1587.68 C 514.085 1597.84 512.019 1720.92 512.006 1740.27 C 522.776 1740.55 554.642 1739.79 562.388 1740.84 C 561.16 1747.78 561.912 1753.93 561.495 1760.91 C 561.518 1770.66 561.85 1782.23 561.462 1791.84 C 527.667 1792.67 493.764 1791.67 460.214 1792.41 C 460.339 1805.29 461.214 1831.94 459.994 1843.62 C 416.459 1844.78 369.436 1843.93 325.72 1843.85 L 100.69 1843.85 C 68.3626 1843.89 31.8925 1842.79 0 1843.84 L 0 1740.83 L 0 1587.08 C 16.789 1587.12 34.4303 1586.87 51.1457 1587.24 C 51.1425 1571.07 50.6273 1551.74 51.2901 1535.83 z"/>
<path transform="translate(0,0)" fill="rgb(253,254,254)" d="M 51.2901 1535.83 L 204.931 1535.92 C 204.937 1552.9 204.789 1570.14 205.03 1587.1 C 216.49 1587.07 246.025 1586.28 256.133 1587.43 C 256.105 1604.3 255.92 1621.41 256.071 1638.26 L 307.048 1638.37 L 307.24 1740.87 L 0 1740.83 L 0 1587.08 C 16.789 1587.12 34.4303 1586.87 51.1457 1587.24 C 51.1425 1571.07 50.6273 1551.74 51.2901 1535.83 z"/>
<path transform="translate(0,0)" fill="rgb(224,15,10)" d="M 358.01 716.835 C 358.965 700.76 357.833 683.483 358.594 667.022 C 358.591 683.372 358.766 700.057 358.538 716.375 L 409.644 716.382 L 409.877 767.956 L 460.882 767.963 C 460.879 783.601 461.137 800.009 460.823 815.582 C 461.86 817.534 461.742 818.377 463.372 818.516 C 477.925 819.759 497.551 818.947 511.999 819.06 C 512.039 835.845 512.391 853.609 512.092 870.309 L 512.021 1126.38 L 460.877 1126.4 C 460.847 1143.34 460.626 1160.66 460.845 1177.57 C 443.989 1177.59 426.358 1177.32 409.572 1177.63 C 409.392 1194.27 409.315 1210.91 409.342 1227.55 C 389.613 1226.12 367.751 1227.53 347.978 1228.27 C 334.954 1228.75 320.757 1228.57 307.665 1228.64 C 307.152 1194.62 307.049 1160.59 307.355 1126.56 C 290.931 1126.06 272.605 1126.52 256.015 1126.52 L 255.949 933.561 C 255.862 913.532 256.88 890.711 256.366 871.265 C 272.212 870.336 291.375 870.715 307.483 870.647 C 308.558 832.683 305.63 794.897 308.364 756.839 C 309.206 745.124 308.269 729.503 308.115 717.49 C 317.863 717.548 349.535 718.259 358.01 716.835 z"/>
<path transform="translate(0,0)" fill="rgb(251,204,201)" d="M 460.823 815.582 C 461.86 817.534 461.742 818.377 463.372 818.516 C 477.925 819.759 497.551 818.947 511.999 819.06 C 512.039 835.845 512.391 853.609 512.092 870.309 C 495.37 869.965 477.552 870.27 460.758 870.265 C 461.131 852.329 460.841 833.578 460.823 815.582 z"/>
<path transform="translate(0,0)" fill="rgb(58,162,246)" d="M 0 819.786 C 10.4605 818.765 26.9922 819.148 37.8522 819.107 L 110.635 819.206 C 124.167 819.262 141.953 819.724 155.045 817.811 L 156.675 818.474 C 155.107 819.204 153.839 819.335 153.8 820.494 C 153.225 837.517 153.52 860.486 153.507 877.1 L 153.386 1024.02 C 153.371 1046.25 154.37 1078.17 153.098 1099.34 C 154.836 1131.13 152.656 1164.51 153.449 1196.47 C 153.636 1204.02 153.65 1212.88 153.085 1220.38 C 151.487 1222.01 151.523 1221.96 150.461 1223.97 C 150.785 1226.81 150.633 1226.68 152.356 1228.92 C 162.21 1232.93 195.636 1228.95 200.41 1232.32 C 202.153 1241.54 200.791 1252.6 201.169 1262.47 C 202.534 1298.14 198.684 1334.57 201.099 1370.11 C 201.392 1374.42 202.655 1377.11 201.208 1381.41 C 188.76 1382.79 161.134 1382.05 147.745 1382.05 L 51.2416 1381.98 C 51.5261 1398.99 50.9386 1416.72 51.4321 1433.54 C 35.7584 1433.35 15.4238 1432.93 0 1433.63 L 0 1126.3 L 0 819.786 z"/>
<path transform="translate(0,0)" fill="rgb(124,202,247)" d="M 51.2416 1381.98 L 147.745 1382.05 C 161.134 1382.05 188.76 1382.79 201.208 1381.41 C 202.655 1377.11 201.392 1374.42 201.099 1370.11 C 198.684 1334.57 202.534 1298.14 201.169 1262.47 C 200.791 1252.6 202.153 1241.54 200.41 1232.32 C 195.636 1228.95 162.21 1232.93 152.356 1228.92 C 150.633 1226.68 150.785 1226.81 150.461 1223.97 C 151.523 1221.96 151.487 1222.01 153.085 1220.38 C 153.338 1224.76 152.639 1225.36 154.718 1228.39 C 164.414 1229.71 192.782 1228.8 204.472 1228.86 L 204.82 1382.66 C 217.303 1382.65 243.498 1381.93 254.874 1383.21 C 256.494 1385.84 255.935 1391.21 255.785 1394.55 C 256.114 1405.37 256.13 1416.19 255.831 1427 C 256.072 1430.5 255.503 1430.68 257.241 1433.12 C 269.223 1434.45 293.763 1433.15 307.165 1433.47 L 307.224 1485.13 L 308.154 1487.14 C 320.542 1489.62 351.038 1488.04 354.617 1491.03 C 353.14 1506.49 354.474 1517.35 356.816 1532.53 C 357.286 1535.58 356.33 1531.92 357.49 1535.71 C 373.819 1536.48 392.893 1536.01 409.437 1535.97 C 409.581 1545.56 410.493 1576.68 409.045 1585.33 L 408.261 1575.78 L 408.307 1576.9 C 408.46 1581.45 408.434 1581.97 407.527 1586.28 L 407.255 1587.61 C 357.933 1587.39 305.253 1586.89 256.133 1587.43 C 246.025 1586.28 216.49 1587.07 205.03 1587.1 C 204.789 1570.14 204.937 1552.9 204.931 1535.92 L 51.2901 1535.83 C 50.6273 1551.74 51.1425 1571.07 51.1457 1587.24 C 34.4303 1586.87 16.789 1587.12 0 1587.08 L 0 1433.63 C 15.4238 1432.93 35.7584 1433.35 51.4321 1433.54 C 50.9386 1416.72 51.5261 1398.99 51.2416 1381.98 z"/>
<path transform="translate(0,0)" fill="rgb(58,162,246)" d="M 205.202 1384.49 C 213.798 1384.56 247.688 1383.14 253.2 1385.42 C 255.615 1387.81 255.383 1390.95 255.785 1394.55 C 256.114 1405.37 256.13 1416.19 255.831 1427 L 253.787 1428.69 L 253.59 1432.48 C 249.72 1435.01 211.565 1433.44 205.174 1432.6 C 205.088 1417.04 204.665 1399.92 205.202 1384.49 z"/>
<path transform="translate(0,0)" fill="rgb(61,167,247)" d="M 0 613.829 C 28.7585 615.197 60.3928 613.527 89.3353 613.844 C 124.743 614.231 160.15 614.201 195.56 614.244 L 264.293 614.128 C 272.739 614.196 298.303 615.015 305.915 613.979 C 307.384 614.981 306.897 614.349 307.528 615.75 C 307.34 632.341 307.277 648.934 307.338 665.526 L 256.068 665.527 L 256.013 716.452 C 239.312 716.52 221.527 716.239 204.942 716.646 L 204.832 819.109 C 195.263 819.137 164.497 819.749 156.675 818.474 L 155.045 817.811 C 141.953 819.724 124.167 819.262 110.635 819.206 L 37.8522 819.107 C 26.9922 819.148 10.4605 818.765 0 819.786 L 0 613.829 z"/>
<path transform="translate(0,0)" fill="rgb(177,9,6)" d="M 306.532 716.272 C 318.497 716.137 346.968 715.606 358.01 716.835 C 349.535 718.259 317.863 717.548 308.115 717.49 C 308.269 729.503 309.206 745.124 308.364 756.839 C 305.63 794.897 308.558 832.683 307.483 870.647 C 291.375 870.715 272.212 870.336 256.366 871.265 C 256.88 890.711 255.862 913.532 255.949 933.561 L 256.015 1126.52 C 272.605 1126.52 290.931 1126.06 307.355 1126.56 C 307.049 1160.59 307.152 1194.62 307.665 1228.64 C 320.757 1228.57 334.954 1228.75 347.978 1228.27 C 367.751 1227.53 389.613 1226.12 409.342 1227.55 C 405.144 1229.83 366.589 1228.61 358.805 1228.77 C 357.5 1236.62 358.235 1270.61 358.27 1280.01 L 255.974 1279.96 C 256.265 1263.16 256.004 1245.86 255.944 1229.03 C 239.577 1228.23 221.066 1228.38 204.53 1228.14 C 203.427 1133.82 204.925 1039.22 204.319 944.872 C 204.161 920.308 204.028 895.247 204.574 870.729 C 219.061 869.879 240.776 870.72 256.134 870.611 L 255.937 768.232 C 272.122 767.76 290.278 768.228 306.61 768.297 L 306.532 716.272 z"/>
<path transform="translate(0,0)" fill="rgb(250,152,107)" d="M 818.244 1945.65 L 1102.52 1945.32 L 1186.57 1945.38 C 1197.46 1945.41 1219.18 1944.86 1229.45 1945.99 C 1227.94 1951 1228.77 1988.54 1228.85 1996.5 L 819.218 1996.52 C 819.019 1986.32 819.976 1953.78 818.244 1945.65 z"/>
<path transform="translate(0,0)" fill="rgb(252,192,138)" d="M 614.734 1383.08 L 614.001 1384.87 C 600.125 1388.71 573.428 1382.46 567.293 1389.19 C 566.696 1425.58 569.524 1723.5 565.677 1728.94 L 563.213 1727.86 L 563.135 1382.74 C 577.99 1382.61 600.274 1381.89 614.734 1383.08 z"/>
<path transform="translate(0,0)" fill="rgb(113,199,250)" d="M 307.224 1485.13 C 322.893 1484.19 342.327 1484.73 358.336 1484.79 C 358.41 1493.6 359.198 1529.56 357.49 1535.71 C 356.33 1531.92 357.286 1535.58 356.816 1532.53 C 354.474 1517.35 353.14 1506.49 354.617 1491.03 C 351.038 1488.04 320.542 1489.62 308.154 1487.14 L 307.224 1485.13 z"/>
<path transform="translate(0,0)" fill="rgb(113,199,250)" d="M 719.376 1997.45 C 728.402 1996.36 816.075 1996.08 819.296 1997.92 C 809.618 2000.31 729.592 1999.82 719.376 1997.45 z"/>
<path transform="translate(0,0)" fill="rgb(5,12,18)" d="M 470.617 1586.99 C 471.443 1586.26 472.27 1585.54 473.096 1584.81 C 483.982 1584.44 494.84 1583.18 505.761 1583.58 C 508.897 1583.7 509.912 1583.95 511.189 1587.01 C 497.666 1587.28 484.139 1587.27 470.617 1586.99 z"/>
<path transform="translate(0,0)" fill="rgb(58,162,246)" d="M 0 0 L 2048 0 L 2048 613.98 C 2031.17 615.281 1999.36 614.111 1981.21 614.241 L 1822.55 614.404 C 1802.62 614.341 1758.71 613.017 1741.44 615.557 C 1741.39 620.907 1741.68 627.488 1740.46 632.562 L 1740.34 614.383 L 1689.75 614.272 L 1689.7 563.209 L 1638.75 563.148 C 1638.46 547.591 1638.14 527.138 1638.94 511.868 L 1638.63 510.12 C 1634.6 507.649 1600.58 508.996 1593.48 509.213 C 1593.4 499.733 1596.57 477.564 1593.15 470.142 L 1590.66 469.382 C 1588.61 466.565 1589.35 462.248 1589.49 458.51 C 1578.32 458.626 1544.9 457.202 1535.99 459.477 C 1535.99 442.827 1536.17 425.835 1535.97 409.217 L 1433.96 409.144 L 1433.87 358.354 L 1331.47 358.236 C 1330.56 342.05 1331.21 323.57 1331.07 307.176 L 716.712 307.248 L 716.59 358.428 C 682.494 358.232 648.396 358.258 614.3 358.508 L 614.305 409.252 L 512.032 409.282 L 511.971 460.601 C 494.923 460.535 477.874 460.625 460.828 460.871 L 460.573 511.907 L 409.586 512.057 L 409.636 523.711 C 409.542 536.66 409.254 550.292 409.609 563.176 C 397.775 563.199 368.415 563.927 358.016 562.563 C 359.305 574.718 358.547 601.442 358.522 614.437 L 358.234 614.852 C 352.473 614.052 313.517 613.874 308.223 614.904 L 307.528 615.75 C 306.897 614.349 307.384 614.981 305.915 613.979 C 298.303 615.015 272.739 614.196 264.293 614.128 L 195.56 614.244 C 160.15 614.201 124.743 614.231 89.3353 613.844 C 60.3928 613.527 28.7585 615.197 0 613.829 L 0 460.938 L 0 458.735 L 0 358.454 L 0 0 z"/>
<path transform="translate(0,0)" fill="rgb(253,254,254)" d="M 102.329 256.009 L 255.998 256.002 L 256.064 307.352 C 306.362 307.497 359.785 306.514 409.721 307.592 L 409.867 358.381 L 460.147 358.503 C 461.431 365.979 460.986 385.413 460.982 393.94 L 460.828 460.871 L 460.573 511.907 L 409.586 512.057 L 409.636 523.711 C 409.542 536.66 409.254 550.292 409.609 563.176 C 397.775 563.199 368.415 563.927 358.016 562.563 C 359.305 574.718 358.547 601.442 358.522 614.437 L 358.234 614.852 C 352.473 614.052 313.517 613.874 308.223 614.904 L 307.528 615.75 C 306.897 614.349 307.384 614.981 305.915 613.979 C 298.303 615.015 272.739 614.196 264.293 614.128 L 195.56 614.244 C 160.15 614.201 124.743 614.231 89.3353 613.844 C 60.3928 613.527 28.7585 615.197 0 613.829 L 0 460.938 L 0 458.735 L 0 358.454 C 16.0431 358.466 35.4172 358.989 51.1896 358.282 C 51.0692 341.429 51.0636 324.576 51.1726 307.723 C 68.1642 307.495 85.1578 307.464 102.15 307.631 L 102.329 256.009 z"/>
<path transform="translate(0,0)" fill="rgb(46,156,243)" d="M 460.147 358.503 C 461.431 365.979 460.986 385.413 460.982 393.94 L 460.828 460.871 L 460.573 511.907 L 409.586 512.057 L 409.636 523.711 C 409.542 536.66 409.254 550.292 409.609 563.176 C 397.775 563.199 368.415 563.927 358.016 562.563 C 359.305 574.718 358.547 601.442 358.522 614.437 L 358.234 614.852 C 352.473 614.052 313.517 613.874 308.223 614.904 L 307.528 615.75 C 306.897 614.349 307.384 614.981 305.915 613.979 C 298.303 615.015 272.739 614.196 264.293 614.128 L 195.56 614.244 C 160.15 614.201 124.743 614.231 89.3353 613.844 C 60.3928 613.527 28.7585 615.197 0 613.829 L 0 460.938 L 0 458.735 C 12.1226 458.636 39.9248 457.435 52.2494 459.634 C 52.382 459.657 55.706 462.031 57.6544 461.908 C 64.1091 461.501 70.1931 461.11 76.6216 461.098 L 137.178 461.251 C 204.258 461.423 271.524 461.195 338.607 461.027 C 349.54 461 358.897 458.883 369.508 458.518 C 399.505 457.733 429.519 457.886 459.506 458.977 L 459.418 394.021 C 459.411 384.4 458.936 367.429 460.147 358.503 z"/>
<path transform="translate(0,0)" fill="rgb(210,217,223)" d="M 460.147 358.503 C 461.431 365.979 460.986 385.413 460.982 393.94 L 460.828 460.871 C 427.085 461.271 392.694 460.902 358.902 460.87 L 358.863 511.952 C 325.121 512.533 289.51 512.003 255.609 512.007 L 51.0677 511.971 L 51.0105 460.921 L 0 460.938 L 0 458.735 C 12.1226 458.636 39.9248 457.435 52.2494 459.634 C 52.382 459.657 55.706 462.031 57.6544 461.908 C 64.1091 461.501 70.1931 461.11 76.6216 461.098 L 137.178 461.251 C 204.258 461.423 271.524 461.195 338.607 461.027 C 349.54 461 358.897 458.883 369.508 458.518 C 399.505 457.733 429.519 457.886 459.506 458.977 L 459.418 394.021 C 459.411 384.4 458.936 367.429 460.147 358.503 z"/>
<path transform="translate(0,0)" fill="rgb(253,254,254)" d="M 1687.54 49.7978 C 1699.21 48.3565 1737.06 48.4359 1750.72 48.7118 C 1778.49 49.2725 1818.72 47.1314 1845.3 49.6001 C 1845.35 60.9974 1844.16 88.5491 1845.67 98.4039 C 1847.49 100.592 1855.7 101.694 1859.01 102.382 C 1871.07 102.646 1882.77 102.332 1894.75 102.425 L 1894.79 153.821 L 1996.7 153.981 L 1996.76 255.969 C 1980.69 255.941 1961.27 255.422 1945.49 256.254 L 1945.44 307.156 C 1904.12 307.999 1860.03 307.287 1818.48 307.284 L 1587.21 307.158 L 1587.04 256.155 C 1571.4 255.438 1551.86 255.946 1535.93 255.92 C 1535.92 243.057 1535.02 218.441 1536.29 206.752 C 1538.27 204.452 1538.72 205.071 1542.48 204.295 C 1547.11 202.711 1578.77 203.436 1585.51 203.51 L 1585.51 151.81 C 1602.5 151.729 1619.49 151.735 1636.48 151.827 L 1636.73 100.805 C 1653.29 100.768 1671.2 101.048 1687.65 100.431 C 1687.12 83.8441 1687.37 66.417 1687.54 49.7978 z"/>
<path transform="translate(0,0)" fill="rgb(210,217,223)" d="M 1587.04 256.155 C 1687.17 257.25 1787.58 255.648 1887.74 256.391 C 1906.78 256.532 1926.48 256.778 1945.49 256.254 L 1945.44 307.156 C 1904.12 307.999 1860.03 307.287 1818.48 307.284 L 1587.21 307.158 L 1587.04 256.155 z"/>
<path transform="translate(0,0)" fill="rgb(46,156,243)" d="M 1687.54 49.7978 C 1699.21 48.3565 1737.06 48.4359 1750.72 48.7118 C 1778.49 49.2725 1818.72 47.1314 1845.3 49.6001 C 1845.35 60.9974 1844.16 88.5491 1845.67 98.4039 C 1847.49 100.592 1855.7 101.694 1859.01 102.382 C 1853.99 102.466 1848.72 102.65 1843.73 102.556 C 1843.64 85.7062 1843.38 68.521 1843.52 51.7007 C 1812.68 51.3987 1781.83 51.3361 1750.99 51.5129 C 1731.39 51.5371 1708.92 51.0223 1689.7 51.7538 C 1689.8 68.6783 1689.79 85.6034 1689.66 102.528 L 1638.3 102.543 C 1638.24 119.607 1638.34 136.912 1638.09 153.952 L 1587.1 154.029 L 1587.08 204.983 C 1579.93 205.042 1547.16 205.752 1542.48 204.295 C 1547.11 202.711 1578.77 203.436 1585.51 203.51 L 1585.51 151.81 C 1602.5 151.729 1619.49 151.735 1636.48 151.827 L 1636.73 100.805 C 1653.29 100.768 1671.2 101.048 1687.65 100.431 C 1687.12 83.8441 1687.37 66.417 1687.54 49.7978 z"/>
<path transform="translate(0,0)" fill="rgb(1,1,1)" d="M 716.712 307.248 L 1331.07 307.176 C 1331.21 323.57 1330.56 342.05 1331.47 358.236 L 1433.87 358.354 L 1433.96 409.144 L 1535.97 409.217 C 1536.17 425.835 1535.99 442.827 1535.99 459.477 C 1544.9 457.202 1578.32 458.626 1589.49 458.51 C 1589.35 462.248 1588.61 466.565 1590.66 469.382 L 1593.15 470.142 C 1596.57 477.564 1593.4 499.733 1593.48 509.213 C 1600.58 508.996 1634.6 507.649 1638.63 510.12 L 1638.94 511.868 C 1638.14 527.138 1638.46 547.591 1638.75 563.148 L 1689.7 563.209 L 1689.75 614.272 L 1740.34 614.383 L 1740.46 632.562 C 1741.68 627.488 1741.39 620.907 1741.44 615.557 C 1758.71 613.017 1802.62 614.341 1822.55 614.404 L 1981.21 614.241 C 1999.36 614.111 2031.17 615.281 2048 613.98 L 2048 819.483 L 2048 972.788 L 2048 1024 L 2048 1126.63 L 2048 1433.97 L 2048 1587.42 C 2007.85 1587.78 1647.72 1589.94 1638.61 1586.21 C 1637.92 1570.5 1638.29 1552.01 1638.22 1536.1 L 1638.29 1527.63 C 1638.97 1514.51 1638.02 1499.24 1638.37 1485.58 L 1639.9 1484.39 C 1654.96 1485.1 1674.08 1484.61 1689.55 1484.71 L 1689.57 1457.93 C 1689.79 1450.35 1689.5 1441.29 1689.46 1433.59 C 1706.43 1433.45 1723.4 1433.44 1740.37 1433.56 L 1740.29 1382.22 L 1791.97 1382.37 L 1791.92 1279.92 L 1689.8 1280.05 C 1689.35 1264.98 1689.38 1244.03 1690.04 1229.11 L 1688.21 1228.7 L 1689.12 1227.9 C 1701.98 1229.65 1726.12 1228.12 1741 1228.58 C 1740.17 1215.33 1740.75 1201.34 1740.75 1187.97 C 1740.55 1167.47 1740.65 1146.96 1741.04 1126.46 C 1756.43 1126.12 1776.9 1127.49 1791.75 1125.47 L 1791.98 956.415 L 1791.99 904.499 C 1791.99 895.04 1792.4 881.202 1791.31 872.111 C 1787.42 869.437 1748.58 870.724 1741.13 870.723 C 1739.9 862.297 1740.92 819.672 1741.1 808.369 C 1741.45 785.833 1737.14 736.717 1740.3 716.665 C 1724.51 716.171 1707.98 717.391 1692.19 716.432 C 1690.64 716.338 1691.15 716.168 1689.64 714.331 L 1689.1 714.297 C 1687.9 705.122 1688.57 676.726 1688.6 666.105 L 1638.54 666.021 C 1638.56 650.068 1638.73 630.275 1637.85 614.519 L 1587.2 614.319 L 1587.16 563.23 C 1577.66 563.265 1568.17 563.199 1558.67 563.033 C 1551.36 563.221 1543.4 563.065 1536.03 563.07 C 1535.99 551.215 1535.27 523.573 1536.73 512.741 C 1531.31 511.548 1524.74 511.982 1519.14 511.942 C 1490.6 511.739 1461.99 512.3 1433.47 511.998 C 1433.51 494.919 1433.71 477.596 1433.57 460.54 C 1401.71 460.723 1363.02 461.536 1331.4 460.467 C 1331.41 443.692 1331.18 426.343 1331.46 409.618 L 1228.73 409.662 L 1228.65 358.557 L 819.2 358.608 L 819.216 409.644 L 716.835 409.605 L 716.765 460.593 L 614.447 460.761 C 614.527 476.687 615.188 496.372 614.608 511.984 L 512.026 512.03 L 512.029 563.12 L 460.828 563.159 C 460.86 580.056 461.224 598.076 460.874 614.876 C 454.02 613.721 433.196 614.177 425.626 614.216 C 403.259 614.453 380.89 614.526 358.522 614.437 C 358.547 601.442 359.305 574.718 358.016 562.563 C 368.415 563.927 397.775 563.199 409.609 563.176 C 409.254 550.292 409.542 536.66 409.636 523.711 L 409.586 512.057 L 460.573 511.907 L 460.828 460.871 C 477.874 460.625 494.923 460.535 511.971 460.601 L 512.032 409.282 L 614.305 409.252 L 614.3 358.508 C 648.396 358.258 682.494 358.232 716.59 358.428 L 716.712 307.248 z"/>
<path transform="translate(0,0)" fill="rgb(58,162,246)" d="M 1894.93 820.899 C 1896.59 822.664 1896.54 822.675 1897.46 824.83 C 1898.26 822.249 1897.86 823.193 1899.72 821.008 C 1906.39 817.987 1937.08 818.665 1945.82 818.985 C 1977.81 821.091 2015.53 818.382 2048 819.483 L 2048 972.788 L 2048 1024 L 2048 1126.63 L 2048 1433.97 C 2031.18 1433.91 2013.26 1434.37 1996.55 1433.6 C 1996.53 1416.38 1996.42 1399.17 1996.2 1381.95 C 1947.51 1382.35 1893.39 1382.9 1845.02 1381.98 C 1844.92 1372.8 1844.98 1363.63 1845.22 1354.45 C 1846.69 1361.58 1846.48 1368.08 1847.5 1375.63 C 1848.16 1371.75 1847.86 1363.49 1847.95 1359.16 C 1848.25 1333.52 1847.99 1307.83 1847.91 1282.18 C 1847.88 1270.71 1849.06 1254.82 1847.7 1243.74 C 1843.08 1238.98 1843.64 1233.54 1848.16 1229.07 C 1862.35 1228.31 1880.18 1228.79 1894.64 1228.8 C 1894.64 1167.99 1893.18 1100.81 1894.96 1040.53 C 1894.34 1036.13 1894.5 1017.88 1894.55 1012.66 C 1894.7 996.787 1894.02 979.321 1894.71 963.598 L 1894.75 886.415 C 1893.61 875.859 1894.35 832.775 1894.93 820.899 z"/>
<path transform="translate(0,0)" fill="rgb(253,254,254)" d="M 1894.93 820.899 C 1896.59 822.664 1896.54 822.675 1897.46 824.83 C 1898.26 822.249 1897.86 823.193 1899.72 821.008 C 1906.39 817.987 1937.08 818.665 1945.82 818.985 C 1977.81 821.091 2015.53 818.382 2048 819.483 L 2048 972.788 C 2019.67 972.9 1988.05 973.567 1959.92 972.793 C 1934.75 972.1 1923.01 968.84 1895.29 971.579 L 1894.71 963.598 L 1894.75 886.415 C 1893.61 875.859 1894.35 832.775 1894.93 820.899 z"/>
<path transform="translate(0,0)" fill="rgb(58,162,246)" d="M 1894.93 820.899 C 1896.59 822.664 1896.54 822.675 1897.46 824.83 C 1898.26 822.249 1897.86 823.193 1899.72 821.008 C 1906.39 817.987 1937.08 818.665 1945.82 818.985 C 1945.66 836.11 1945.65 853.235 1945.79 870.36 C 1928.85 870.593 1911.9 870.586 1894.96 870.338 C 1894.91 875.501 1894.98 881.315 1894.75 886.415 C 1893.61 875.859 1894.35 832.775 1894.93 820.899 z"/>
<path transform="translate(0,0)" fill="rgb(210,217,223)" d="M 1895.29 971.579 C 1923.01 968.84 1934.75 972.1 1959.92 972.793 C 1988.05 973.567 2019.67 972.9 2048 972.788 L 2048 1024 L 1945.87 1023.91 L 1945.76 972.505 C 1939.42 972.408 1898.71 973.494 1895.29 971.579 z"/>
<path transform="translate(0,0)" fill="rgb(124,202,247)" d="M 1843.49 1352.56 C 1843.38 1339.93 1842.06 1231.65 1844.5 1229.08 L 1848.16 1229.07 C 1843.64 1233.54 1843.08 1238.98 1847.7 1243.74 C 1849.06 1254.82 1847.88 1270.71 1847.91 1282.18 C 1847.99 1307.83 1848.25 1333.52 1847.95 1359.16 C 1847.86 1363.49 1848.16 1371.75 1847.5 1375.63 C 1846.48 1368.08 1846.69 1361.58 1845.22 1354.45 C 1844.98 1363.63 1844.92 1372.8 1845.02 1381.98 C 1893.39 1382.9 1947.51 1382.35 1996.2 1381.95 C 1996.42 1399.17 1996.53 1416.38 1996.55 1433.6 C 2013.26 1434.37 2031.18 1433.91 2048 1433.97 L 2048 1587.42 C 2007.85 1587.78 1647.72 1589.94 1638.61 1586.21 C 1637.92 1570.5 1638.29 1552.01 1638.22 1536.1 L 1638.29 1527.63 C 1638.41 1530.78 1638.15 1532.8 1639.78 1535.46 C 1647.22 1536.73 1679.88 1536.07 1689.67 1536.03 L 1689.7 1484.85 L 1740.75 1484.89 L 1740.68 1433.58 L 1792.06 1433.48 L 1792.06 1383.54 C 1798.6 1381.79 1834.33 1382.72 1843.54 1382.83 L 1843.49 1352.56 z"/>
<path transform="translate(0,0)" fill="rgb(58,162,246)" d="M 1792.06 1433.48 L 1792.06 1383.54 C 1802.7 1386.33 1837.64 1382.55 1843.15 1386.02 C 1844.26 1395.31 1843.01 1421.24 1843.23 1433.21 C 1833.19 1433.73 1801.93 1434.42 1792.06 1433.48 z"/>
<path transform="translate(0,0)" fill="rgb(61,167,247)" d="M 1741.44 615.557 C 1758.71 613.017 1802.62 614.341 1822.55 614.404 L 1981.21 614.241 C 1999.36 614.111 2031.17 615.281 2048 613.98 L 2048 819.483 C 2015.53 818.382 1977.81 821.091 1945.82 818.985 C 1937.08 818.665 1906.39 817.987 1899.72 821.008 C 1897.86 823.193 1898.26 822.249 1897.46 824.83 C 1896.54 822.675 1896.59 822.664 1894.93 820.899 C 1894.82 820.765 1894.74 820.603 1894.6 820.498 C 1890.05 817.031 1851.42 819.125 1843.13 819.186 L 1843.05 716.416 C 1826.36 716.084 1808.77 716.356 1792.01 716.345 L 1791.98 665.447 C 1774.93 665.239 1757.59 665.38 1740.52 665.351 L 1740.46 632.562 C 1741.68 627.488 1741.39 620.907 1741.44 615.557 z"/>
<path transform="translate(0,0)" fill="rgb(177,9,6)" d="M 1740.3 716.665 C 1741.99 725.502 1740.78 757.06 1741.22 768.277 C 1757.48 768.238 1775.95 767.755 1792.03 768.261 C 1791.88 802.25 1791.91 836.24 1792.12 870.229 C 1809.24 870.663 1826.36 870.847 1843.49 870.78 L 1843.58 1100.17 C 1843.57 1140.25 1845 1189.36 1843.2 1228.65 C 1826.18 1228.61 1809.16 1228.77 1792.15 1229.14 C 1792.05 1241.83 1791.27 1265.65 1792.45 1277.44 L 1791.92 1279.92 L 1689.8 1280.05 C 1689.35 1264.98 1689.38 1244.03 1690.04 1229.11 L 1688.21 1228.7 L 1689.12 1227.9 C 1701.98 1229.65 1726.12 1228.12 1741 1228.58 C 1740.17 1215.33 1740.75 1201.34 1740.75 1187.97 C 1740.55 1167.47 1740.65 1146.96 1741.04 1126.46 C 1756.43 1126.12 1776.9 1127.49 1791.75 1125.47 L 1791.98 956.415 L 1791.99 904.499 C 1791.99 895.04 1792.4 881.202 1791.31 872.111 C 1787.42 869.437 1748.58 870.724 1741.13 870.723 C 1739.9 862.297 1740.92 819.672 1741.1 808.369 C 1741.45 785.833 1737.14 736.717 1740.3 716.665 z"/>
<path transform="translate(0,0)" fill="rgb(161,9,8)" d="M 1690.04 1229.11 C 1692.54 1231.87 1693.89 1231.25 1695.65 1232.73 C 1698.41 1235.06 1697.17 1263.35 1696.93 1268.12 C 1696.76 1271.35 1696.36 1274.5 1696.36 1277.74 C 1721.49 1278.32 1746.65 1277.25 1771.78 1277.73 C 1778.68 1277.86 1785.58 1278.12 1792.45 1277.44 L 1791.92 1279.92 L 1689.8 1280.05 C 1689.35 1264.98 1689.38 1244.03 1690.04 1229.11 z"/>
<path transform="translate(0,0)" fill="rgb(210,217,223)" d="M 1637.85 614.519 C 1653.41 614.483 1674.26 615.058 1689.4 614.183 L 1689.64 714.331 L 1689.1 714.297 C 1687.9 705.122 1688.57 676.726 1688.6 666.105 L 1638.54 666.021 C 1638.56 650.068 1638.73 630.275 1637.85 614.519 z"/>
<path transform="translate(0,0)" fill="rgb(46,156,243)" d="M 1535.99 459.477 C 1544.9 457.202 1578.32 458.626 1589.49 458.51 C 1589.35 462.248 1588.61 466.565 1590.66 469.382 L 1593.15 470.142 C 1596.57 477.564 1593.4 499.733 1593.48 509.213 C 1600.58 508.996 1634.6 507.649 1638.63 510.12 L 1638.94 511.868 C 1621.94 512.311 1604.29 512.025 1587.24 511.969 L 1587.08 460.781 C 1579.66 460.503 1539.3 461.477 1535.99 459.477 z"/>
<path transform="translate(0,0)" fill="rgb(210,217,223)" d="M 614.185 1126.28 L 1434.02 1126.1 L 1433.95 1177.31 C 1467.55 1177.24 1502.56 1177.73 1535.99 1177.21 L 1536.06 1228.85 C 1552.94 1228.79 1570.18 1228.91 1587.04 1228.65 L 1587.17 1279.95 L 1638.24 1280.03 C 1638.61 1296.94 1638.79 1313.85 1638.78 1330.76 C 1655.62 1330.95 1672.46 1330.98 1689.3 1330.84 C 1690.56 1324.95 1689.87 1288.48 1689.8 1280.05 L 1791.92 1279.92 L 1791.97 1382.37 L 1740.29 1382.22 L 1740.37 1433.56 C 1723.4 1433.44 1706.43 1433.45 1689.46 1433.59 C 1689.5 1441.29 1689.79 1450.35 1689.57 1457.93 L 1689.55 1484.71 C 1674.08 1484.61 1654.96 1485.1 1639.9 1484.39 L 1638.37 1485.58 C 1638.02 1499.24 1638.97 1514.51 1638.29 1527.63 L 1638.22 1536.1 C 1638.29 1552.01 1637.92 1570.5 1638.61 1586.21 C 1635.5 1588.14 1547.46 1587.07 1535.98 1587.23 L 1535.96 1676.39 C 1535.96 1687.4 1535.3 1709.93 1536.16 1720.35 L 1535.99 1740.53 C 1521.47 1740.62 1499.5 1739.83 1485.79 1740.92 L 1484.74 1742 L 1485.12 1745.55 C 1484.04 1766.61 1484.97 1789.07 1484.62 1810.28 C 1479 1819.78 1491.38 1840.85 1467.59 1839.92 C 1460.75 1839.65 1453 1840.36 1446.65 1843.23 L 1441.9 1843.63 C 1440.32 1843.39 1435.59 1843.24 1433.76 1843.13 C 1433.1 1813.16 1432.86 1770.54 1434.03 1740.8 C 1448.06 1739.88 1469.62 1740.6 1484.84 1740.27 C 1484.45 1680.61 1485.62 1620.18 1484.73 1560.63 C 1482.32 1553.6 1482.46 1518.84 1482.46 1509.47 L 1482.52 1436.9 C 1482.54 1419.39 1482.99 1401.67 1481.41 1384.24 C 1471.73 1386.28 1438.26 1390.49 1431.63 1383.89 C 1431.25 1381.37 1431.64 1334.43 1432.38 1331.26 C 1399.31 1330.64 1364.83 1331.1 1331.66 1331.07 C 1331.6 1315.31 1330.93 1295.28 1331.8 1279.88 L 1331.48 1279.34 C 1323.93 1280.69 1286.69 1280.05 1276.55 1280.05 L 1156.46 1279.99 L 716.704 1280.02 L 614.572 1280.03 C 614.868 1296.69 614.484 1314.31 614.386 1331.05 L 512.029 1331.05 L 512.066 1382.38 L 460.942 1382.25 L 460.988 1433.82 L 511.97 1433.13 L 511.966 1535.98 L 409.718 1536.02 L 409.826 1484.41 C 392.972 1484.73 375.547 1484.5 358.619 1484.55 C 358.619 1467.96 358.953 1449.88 358.219 1433.42 C 341.26 1433.68 324.298 1433.67 307.339 1433.4 L 307.373 1382.24 L 256.018 1382.44 L 255.974 1279.96 L 358.27 1280.01 C 358.235 1270.61 357.5 1236.62 358.805 1228.77 C 361.028 1246.38 358.866 1274.31 358.413 1292.56 C 358.095 1305.35 358.024 1318.07 358.292 1330.87 L 409.638 1330.87 C 409.399 1313.9 409.478 1296.92 409.876 1279.95 L 460.827 1280.02 L 460.726 1228.61 C 477.781 1228.95 494.84 1228.99 511.896 1228.72 L 512 1177.38 L 614.068 1177.21 L 614.185 1126.28 z"/>
<path transform="translate(0,0)" fill="rgb(1,1,1)" d="M 1331.8 1279.88 L 1433.75 1280.02 L 1433.84 1331.12 L 1536.02 1331.1 L 1536.05 1382.34 L 1587.15 1382.26 C 1587.18 1388.96 1588.23 1429.47 1585.84 1433.61 L 1550.58 1433.46 L 1536.02 1433.4 L 1536.01 1536.03 C 1569.61 1536.01 1604.75 1535.46 1638.22 1536.1 C 1638.29 1552.01 1637.92 1570.5 1638.61 1586.21 C 1635.5 1588.14 1547.46 1587.07 1535.98 1587.23 L 1535.96 1676.39 C 1535.96 1687.4 1535.3 1709.93 1536.16 1720.35 L 1535.99 1740.53 C 1521.47 1740.62 1499.5 1739.83 1485.79 1740.92 L 1484.74 1742 L 1485.12 1745.55 C 1484.04 1766.61 1484.97 1789.07 1484.62 1810.28 C 1479 1819.78 1491.38 1840.85 1467.59 1839.92 C 1460.75 1839.65 1453 1840.36 1446.65 1843.23 L 1441.9 1843.63 C 1440.32 1843.39 1435.59 1843.24 1433.76 1843.13 C 1433.1 1813.16 1432.86 1770.54 1434.03 1740.8 C 1448.06 1739.88 1469.62 1740.6 1484.84 1740.27 C 1484.45 1680.61 1485.62 1620.18 1484.73 1560.63 C 1482.32 1553.6 1482.46 1518.84 1482.46 1509.47 L 1482.52 1436.9 C 1482.54 1419.39 1482.99 1401.67 1481.41 1384.24 C 1471.73 1386.28 1438.26 1390.49 1431.63 1383.89 C 1431.25 1381.37 1431.64 1334.43 1432.38 1331.26 C 1399.31 1330.64 1364.83 1331.1 1331.66 1331.07 C 1331.6 1315.31 1330.93 1295.28 1331.8 1279.88 z"/>
<path transform="translate(0,0)" fill="rgb(252,192,138)" d="M 1432.38 1331.26 C 1434.94 1334.72 1433.67 1375.03 1433.46 1382.47 L 1484.83 1382.62 L 1484.91 1498.79 C 1484.91 1518.54 1485.42 1541.13 1484.73 1560.63 C 1482.32 1553.6 1482.46 1518.84 1482.46 1509.47 L 1482.52 1436.9 C 1482.54 1419.39 1482.99 1401.67 1481.41 1384.24 C 1471.73 1386.28 1438.26 1390.49 1431.63 1383.89 C 1431.25 1381.37 1431.64 1334.43 1432.38 1331.26 z"/>
<path transform="translate(0,0)" fill="rgb(1,1,1)" d="M 722.57 1228.31 C 740.584 1229.38 765.172 1228.66 783.645 1228.63 L 888.98 1228.6 L 1225.38 1228.61 C 1253.82 1228.62 1282.27 1228.59 1310.72 1228.61 C 1315.63 1228.62 1327.78 1227.73 1331.07 1229.95 L 1332.24 1233.87 C 1330.38 1241.01 1331.34 1270.68 1331.48 1279.34 C 1323.93 1280.69 1286.69 1280.05 1276.55 1280.05 L 1156.46 1279.99 L 716.704 1280.02 C 716.815 1265.24 715.785 1243.88 716.974 1230.2 C 718.638 1228.21 719.132 1228.81 722.57 1228.31 z"/>
<path transform="translate(0,0)" fill="rgb(224,15,10)" d="M 1689.1 714.297 L 1689.64 714.331 C 1691.15 716.168 1690.64 716.338 1692.19 716.432 C 1707.98 717.391 1724.51 716.171 1740.3 716.665 C 1737.14 736.717 1741.45 785.833 1741.1 808.369 C 1740.92 819.672 1739.9 862.297 1741.13 870.723 C 1748.58 870.724 1787.42 869.437 1791.31 872.111 C 1792.4 881.202 1791.99 895.04 1791.99 904.499 L 1791.98 956.415 L 1791.75 1125.47 C 1776.9 1127.49 1756.43 1126.12 1741.04 1126.46 C 1740.65 1146.96 1740.55 1167.47 1740.75 1187.97 C 1740.75 1201.34 1740.17 1215.33 1741 1228.58 C 1726.12 1228.12 1701.98 1229.65 1689.12 1227.9 L 1688.21 1228.7 L 1670.63 1228.6 L 1638.77 1228.71 C 1638.83 1219.3 1639.55 1186.83 1638.14 1178.79 L 1635.84 1177.9 C 1622.19 1176.93 1601.45 1177.53 1587.28 1177.51 C 1587.38 1167 1586.21 1134.81 1588.24 1126.44 C 1571.47 1125.94 1552.87 1126.32 1535.96 1126.31 L 1535.9 870.289 L 1536.08 819.1 C 1552.21 819.081 1571.39 819.53 1587.26 818.734 L 1587.2 768.001 L 1638.5 767.935 C 1638.3 750.977 1638.54 733.576 1638.58 716.582 C 1651.18 716.493 1673.95 716.836 1687.36 715.995 C 1687.94 715.429 1688.52 714.863 1689.1 714.297 z"/>
<path transform="translate(0,0)" fill="rgb(251,204,201)" d="M 1587.26 818.734 L 1587.24 870.435 L 1535.9 870.289 L 1536.08 819.1 C 1552.21 819.081 1571.39 819.53 1587.26 818.734 z"/>
<path transform="translate(0,0)" fill="rgb(216,15,9)" d="M 1588.24 1126.44 C 1589.92 1130.32 1589.23 1139.76 1589.36 1144.74 C 1591.19 1141.07 1588.49 1135.59 1590.47 1130.11 L 1591.52 1131.27 C 1590.91 1138.01 1589.26 1148.13 1591.31 1154.01 C 1592.67 1157.93 1591.07 1164.71 1592.43 1168.34 L 1593.97 1167.93 L 1594.78 1165.76 L 1595.98 1166.79 C 1597.44 1162.31 1597.18 1158.31 1595.32 1154.08 L 1595.45 1154.5 C 1594.06 1150.65 1594.38 1149.99 1594.85 1145.77 L 1595.8 1144.55 C 1597.7 1150.29 1597.91 1166.86 1595.98 1172.66 L 1594.75 1173.95 C 1588.78 1173.16 1589.61 1159.7 1589.44 1154.6 C 1589.38 1161.25 1589.21 1168.24 1589.36 1174.86 C 1607.75 1174.45 1622.18 1173.73 1640.49 1176.27 L 1640.49 1227.51 C 1645.12 1227.48 1668.45 1226.59 1670.63 1228.6 L 1638.77 1228.71 C 1638.83 1219.3 1639.55 1186.83 1638.14 1178.79 L 1635.84 1177.9 C 1622.19 1176.93 1601.45 1177.53 1587.28 1177.51 C 1587.38 1167 1586.21 1134.81 1588.24 1126.44 z"/>
<path transform="translate(0,0)" fill="rgb(216,15,9)" d="M 1642.35 1220.13 C 1658.93 1221.61 1673.1 1219.58 1685.41 1220.46 C 1686.74 1223.62 1686.37 1221.92 1685.71 1225.87 C 1675.47 1225.01 1650.24 1225.53 1642.73 1222.67 L 1642.35 1220.13 z"/>
<path transform="translate(0,0)" fill="rgb(210,217,223)" d="M 358.522 614.437 C 380.89 614.526 403.259 614.453 425.626 614.216 C 433.196 614.177 454.02 613.721 460.874 614.876 C 449.29 616.199 422.254 615.407 409.273 615.437 C 410.478 629.685 409.493 650.849 409.501 665.825 L 358.698 666.095 C 357.787 650.114 358.233 631.077 358.234 614.852 L 358.522 614.437 z"/>
<path transform="translate(0,0)" fill="rgb(251,243,241)" d="M 1635.84 1177.9 L 1638.14 1178.79 C 1639.55 1186.83 1638.83 1219.3 1638.77 1228.71 L 1670.63 1228.6 L 1688.21 1228.7 L 1690.04 1229.11 C 1689.38 1244.03 1689.35 1264.98 1689.8 1280.05 C 1689.87 1288.48 1690.56 1324.95 1689.3 1330.84 C 1688.32 1321.08 1690.29 1291.22 1687.89 1285.1 C 1681.81 1269.59 1685.28 1250.08 1685.51 1232.76 C 1677.23 1231.66 1670.95 1231.12 1662.63 1230.89 C 1654.58 1230.67 1643.4 1231.62 1635.92 1230 C 1635.02 1225.84 1635.48 1183.84 1635.84 1177.9 z"/>
<path transform="translate(0,0)" fill="rgb(224,15,10)" d="M 870.297 409.301 C 888.553 409.883 906.858 408.599 924.885 408.888 L 925.737 409.05 C 941.308 407.269 984.489 408.557 1002.78 408.555 L 1177.83 409.44 C 1177.91 423.596 1177.34 446.007 1178.43 459.497 C 1186.03 459.506 1223.01 459.061 1228.62 460.27 C 1228.78 477.489 1228.83 494.708 1228.76 511.928 L 1279.96 511.913 L 1331.25 512.114 C 1331.85 540.536 1332.07 569.506 1332.58 597.968 C 1332.66 602.953 1332.64 609.415 1331.98 614.303 L 1371.5 614.374 C 1374.81 614.309 1379.11 613.795 1381.82 615.286 C 1383.1 620.94 1382.59 666.063 1382.59 673.576 L 1382.49 819.675 C 1373.98 821.172 1342.21 820.427 1332.45 820.358 C 1332.51 842.588 1332.48 864.302 1331.33 886.521 C 1330.77 897.249 1332.02 911.576 1331.01 921.828 C 1313.95 921.577 1296.9 921.556 1279.85 921.765 L 1228.8 921.693 L 1228.75 972.692 L 1219.31 972.997 C 1208.66 974.871 1188.84 974.126 1177.49 973.852 C 1177.8 989.32 1178.64 1008.87 1177.79 1023.99 C 1161.58 1024.04 1142.38 1024.62 1126.39 1024.08 C 1058.84 1023.08 989.322 1024.12 921.485 1023.96 C 905.89 1023.37 887.039 1024.25 870.63 1023.99 C 870.553 1014.17 871.29 983.423 869.696 975.326 C 867.406 973.498 862.769 973.375 859.595 972.985 C 849.029 972.215 830.139 972.79 819.216 972.815 L 819.195 921.627 C 805.609 921.731 785.792 921.007 772.978 922.123 C 768.844 922.483 757.037 921.937 752.471 921.849 C 740.413 921.635 728.354 921.563 716.295 921.633 C 718.552 889.955 713.717 852.635 715.938 820.319 L 715.756 818.947 C 708.428 820.044 674.046 819.365 665.667 819.326 L 665.646 614.388 C 682.324 614.032 698.939 614.846 715.72 614.142 C 714.966 586.906 716.604 560.016 716.505 532.811 C 716.48 526.065 716.279 518.783 717.231 512.122 C 743.412 512.216 796.749 509.123 819.402 511.386 L 819.47 460.209 C 824.899 459.122 862.251 459.522 869.954 459.485 L 870.297 409.301 z"/>
<path transform="translate(0,0)" fill="rgb(251,204,201)" d="M 925.737 409.05 C 941.308 407.269 984.489 408.557 1002.78 408.555 L 1177.83 409.44 C 1177.91 423.596 1177.34 446.007 1178.43 459.497 C 1186.03 459.506 1223.01 459.061 1228.62 460.27 C 1221.12 461.529 1196.21 460.888 1187.4 460.785 C 1167.1 460.549 1146.79 460.517 1126.48 460.69 L 1126.4 409.696 L 987.563 409.606 C 973.406 409.581 937.905 410.739 925.737 409.05 z"/>
<path transform="translate(0,0)" fill="rgb(251,204,201)" d="M 1332.04 819.077 C 1342.72 819.135 1373.54 818.436 1382.49 819.675 C 1373.98 821.172 1342.21 820.427 1332.45 820.358 C 1332.51 842.588 1332.48 864.302 1331.33 886.521 C 1330.77 897.249 1332.02 911.576 1331.01 921.828 C 1313.95 921.577 1296.9 921.556 1279.85 921.765 C 1280.9 911.363 1280.08 881.991 1280.08 870.179 L 1331.23 870.134 C 1331.21 861.904 1330.21 825.331 1332.04 819.077 z"/>
<path transform="translate(0,0)" fill="rgb(251,204,201)" d="M 717.231 512.122 C 743.412 512.216 796.749 509.123 819.402 511.386 C 810.971 512.9 777.692 512.159 768.019 512.1 C 767.99 529.029 768.134 546.245 767.925 563.145 L 716.931 563.124 L 716.843 614.23 L 715.72 614.142 C 714.966 586.906 716.604 560.016 716.505 532.811 C 716.48 526.065 716.279 518.783 717.231 512.122 z"/>
<path transform="translate(0,0)" fill="rgb(251,204,201)" d="M 715.938 820.319 C 717.779 826.332 716.805 861.848 716.887 870.071 C 733.77 870.112 751.077 870.353 767.923 870.108 C 767.867 882.996 767.064 908.33 768.309 920.213 C 770.844 922.019 769.789 921.458 772.978 922.123 C 768.844 922.483 757.037 921.937 752.471 921.849 C 740.413 921.635 728.354 921.563 716.295 921.633 C 718.552 889.955 713.717 852.635 715.938 820.319 z"/>
<path transform="translate(0,0)" fill="rgb(251,204,201)" d="M 1126.34 972.859 C 1156.77 972.864 1189.09 972.184 1219.31 972.997 C 1208.66 974.871 1188.84 974.126 1177.49 973.852 C 1177.8 989.32 1178.64 1008.87 1177.79 1023.99 C 1161.58 1024.04 1142.38 1024.62 1126.39 1024.08 C 1126.65 1007.27 1126.36 989.727 1126.34 972.859 z"/>
<path transform="translate(0,0)" fill="rgb(251,204,201)" d="M 870.297 409.301 C 888.553 409.883 906.858 408.599 924.885 408.888 L 922.158 410.044 C 920.289 415.863 921.418 451.797 921.414 460.767 C 900.163 460.516 878.91 460.542 857.66 460.845 C 850.082 460.918 825.718 461.452 819.47 460.209 C 824.899 459.122 862.251 459.522 869.954 459.485 L 870.297 409.301 z"/>
<path transform="translate(0,0)" fill="rgb(251,204,201)" d="M 1279.96 511.913 L 1331.25 512.114 C 1331.85 540.536 1332.07 569.506 1332.58 597.968 C 1332.66 602.953 1332.64 609.415 1331.98 614.303 C 1330.61 605.958 1331.16 573.05 1331.14 563.248 L 1280.1 563.067 L 1279.96 511.913 z"/>
<path transform="translate(0,0)" fill="rgb(251,204,201)" d="M 859.595 972.985 C 879.713 972.339 901.29 972.749 921.514 972.786 L 921.485 1023.96 C 905.89 1023.37 887.039 1024.25 870.63 1023.99 C 870.553 1014.17 871.29 983.423 869.696 975.326 C 867.406 973.498 862.769 973.375 859.595 972.985 z"/>
<path transform="translate(0,0)" fill="rgb(216,15,9)" d="M 715.72 614.142 L 716.843 614.23 L 716.243 616.338 C 708.53 619.722 674.468 615.353 668.936 618.59 C 667.407 637.639 669.951 656.288 668.981 675.433 C 668.097 692.875 669.51 710.829 669.18 728.281 C 668.843 746.072 668.875 763.731 668.837 781.515 C 669.071 792.292 667.334 806.285 668.949 816.687 C 676.193 816.81 712.317 815.335 715.577 818.671 C 715.653 818.749 715.696 818.855 715.756 818.947 C 708.428 820.044 674.046 819.365 665.667 819.326 L 665.646 614.388 C 682.324 614.032 698.939 614.846 715.72 614.142 z"/>
<path transform="translate(0,0)" fill="rgb(216,15,9)" d="M 1371.5 614.374 C 1374.81 614.309 1379.11 613.795 1381.82 615.286 C 1383.1 620.94 1382.59 666.063 1382.59 673.576 L 1382.49 819.675 C 1373.54 818.436 1342.72 819.135 1332.04 819.077 C 1332.74 817.94 1333.16 816.842 1334.47 816.776 C 1345.08 816.244 1369.48 818.389 1378.46 815.164 C 1382.09 806.864 1379.01 730.883 1379.25 714.002 L 1380.41 647.542 C 1380.46 642.422 1382.14 619.729 1378.92 616.944 C 1375.33 616.43 1374.65 616.469 1371.5 614.374 z"/>
<path transform="translate(0,0)" fill="rgb(216,15,9)" d="M 822.494 462.256 C 826.523 463.595 825.971 462.708 827.824 465.531 C 828.299 473.203 828.851 507.684 826.633 513.569 L 824.062 511.667 C 821.491 505.688 821.791 469.954 822.494 462.256 z"/>
<path transform="translate(0,0)" fill="rgb(124,202,247)" d="M 1638.61 1586.21 C 1647.72 1589.94 2007.85 1587.78 2048 1587.42 L 2048 1843.81 L 2048 2048 L 1228.68 2048 L 1228.64 1996.69 C 1262.59 1997.08 1297.07 1996.8 1331.06 1996.83 C 1331.08 1984.73 1330.15 1957.58 1331.4 1946.87 C 1334.14 1945.14 1335.67 1945.62 1339.27 1945.44 L 1340.15 1944.8 C 1342.74 1944.55 1344.85 1944.35 1347.41 1943.75 C 1358.09 1941.34 1369.13 1940.94 1379.96 1942.58 C 1379.3 1928.92 1380.18 1909.12 1381.33 1895.31 C 1371.92 1895.33 1345.53 1896.41 1337.42 1894.38 C 1347.16 1894.42 1374.14 1895.03 1382.72 1893.75 C 1383 1876.86 1382.97 1859.97 1382.62 1843.09 L 1433.76 1843.13 C 1435.59 1843.24 1440.32 1843.39 1441.9 1843.63 L 1446.65 1843.23 C 1453 1840.36 1460.75 1839.65 1467.59 1839.92 C 1491.38 1840.85 1479 1819.78 1484.62 1810.28 C 1484.97 1789.07 1484.04 1766.61 1485.12 1745.55 L 1484.74 1742 L 1485.79 1740.92 C 1499.5 1739.83 1521.47 1740.62 1535.99 1740.53 L 1536.16 1720.35 C 1535.3 1709.93 1535.96 1687.4 1535.96 1676.39 L 1535.98 1587.23 C 1547.46 1587.07 1635.5 1588.14 1638.61 1586.21 z"/>
<path transform="translate(0,0)" fill="rgb(113,199,250)" d="M 1638.61 1586.21 C 1647.72 1589.94 2007.85 1587.78 2048 1587.42 L 2048 1843.81 C 2019.45 1842.55 1979.6 1843.82 1950.04 1843.84 L 1703.26 1843.83 C 1667.15 1843.75 1622.93 1845.17 1587.61 1843.44 C 1586.43 1831.84 1587.16 1805.04 1587.18 1792.12 C 1553.67 1793 1518.62 1791.35 1486.23 1792.51 C 1486.06 1783.64 1486.67 1770.61 1487 1761.52 C 1486.5 1756.19 1485.87 1750.86 1485.12 1745.55 L 1484.74 1742 L 1485.79 1740.92 C 1499.5 1739.83 1521.47 1740.62 1535.99 1740.53 L 1536.16 1720.35 C 1535.3 1709.93 1535.96 1687.4 1535.96 1676.39 L 1535.98 1587.23 C 1547.46 1587.07 1635.5 1588.14 1638.61 1586.21 z"/>
<path transform="translate(0,0)" fill="rgb(1,1,1)" d="M 1382.62 1843.09 L 1433.76 1843.13 C 1433.79 1850.74 1434.28 1889.22 1433.17 1893.86 C 1421.85 1892.78 1394.62 1893.32 1382.72 1893.75 C 1383 1876.86 1382.97 1859.97 1382.62 1843.09 z"/>
<path transform="translate(0,0)" fill="rgb(5,12,18)" d="M 1382.72 1893.75 C 1394.62 1893.32 1421.85 1892.78 1433.17 1893.86 L 1433.16 1894.82 C 1416.19 1894.33 1399.49 1894.88 1382.68 1894.54 C 1382.54 1911.62 1382.54 1928.71 1382.67 1945.8 C 1375.62 1945.72 1343.56 1946.12 1339.27 1945.44 L 1340.15 1944.8 C 1342.74 1944.55 1344.85 1944.35 1347.41 1943.75 C 1358.09 1941.34 1369.13 1940.94 1379.96 1942.58 C 1379.3 1928.92 1380.18 1909.12 1381.33 1895.31 C 1371.92 1895.33 1345.53 1896.41 1337.42 1894.38 C 1347.16 1894.42 1374.14 1895.03 1382.72 1893.75 z"/>
<path transform="translate(0,0)" fill="rgb(5,12,18)" d="M 1446.65 1843.23 C 1453 1840.36 1460.75 1839.65 1467.59 1839.92 C 1491.38 1840.85 1479 1819.78 1484.62 1810.28 L 1484.79 1843.19 L 1446.65 1843.23 z"/>
</svg>